<svg width="20" height="20" viewBox="0 0 20 20" fill="none" xmlns="http://www.w3.org/2000/svg">
<g clip-path="url(#clip0_177_2221)">
<path d="M18.2257 9.58331C17.6924 8.65831 14.759 4.01664 9.77571 4.16664C5.16737 4.28331 2.50071 8.33331 1.77571 9.58331C1.70257 9.70999 1.66406 9.85369 1.66406 9.99997C1.66406 10.1463 1.70257 10.29 1.77571 10.4166C2.30071 11.325 5.10904 15.8333 10.0174 15.8333H10.2257C14.834 15.7166 17.509 11.6666 18.2257 10.4166C18.2988 10.29 18.3374 10.1463 18.3374 9.99997C18.3374 9.85369 18.2988 9.70999 18.2257 9.58331ZM10.184 14.1666C6.59238 14.25 4.25071 11.175 3.51737 9.99997C4.35071 8.65831 6.52571 5.91664 9.85904 5.83331C13.434 5.74164 15.784 8.82497 16.5257 9.99997C15.6674 11.3416 13.5174 14.0833 10.184 14.1666Z" fill="#F9F7F3"/>
<path d="M10.0007 7.08331C9.42379 7.08331 8.85988 7.25437 8.38024 7.57486C7.9006 7.89535 7.52676 8.35087 7.306 8.88382C7.08525 9.41677 7.02749 10.0032 7.14003 10.569C7.25257 11.1348 7.53035 11.6545 7.93826 12.0624C8.34616 12.4703 8.86586 12.7481 9.43164 12.8606C9.99742 12.9731 10.5839 12.9154 11.1168 12.6946C11.6498 12.4739 12.1053 12.1 12.4258 11.6204C12.7463 11.1407 12.9173 10.5768 12.9173 9.99998C12.9173 9.22643 12.61 8.48457 12.063 7.93758C11.5161 7.3906 10.7742 7.08331 10.0007 7.08331ZM10.0007 11.25C9.75343 11.25 9.51175 11.1767 9.30619 11.0393C9.10063 10.902 8.94041 10.7067 8.8458 10.4783C8.75119 10.2499 8.72644 9.99859 8.77467 9.75612C8.8229 9.51364 8.94195 9.29091 9.11677 9.1161C9.29158 8.94128 9.51431 8.82223 9.75679 8.774C9.99927 8.72577 10.2506 8.75052 10.479 8.84513C10.7074 8.93974 10.9026 9.09996 11.04 9.30552C11.1773 9.51108 11.2507 9.75275 11.2507 9.99998C11.2507 10.3315 11.119 10.6494 10.8845 10.8839C10.6501 11.1183 10.3322 11.25 10.0007 11.25Z" fill="#F9F7F3"/>
</g>
<defs>
<clipPath id="clip0_177_2221">
<rect width="20" height="20" fill="white"/>
</clipPath>
</defs>
</svg>
