<svg width="71" height="71" viewBox="0 0 71 71" fill="none" xmlns="http://www.w3.org/2000/svg">
<path d="M21.4541 0.617432L27.628 6.48263C29.9432 8.6435 31.178 11.5761 31.178 14.8174C31.178 17.9044 32.4128 20.837 34.5737 22.9979L35.3454 23.7696L42.4454 0.771765" fill="#2D231C"/>
<path d="M0.462891 21.1457L8.95202 20.837C12.039 20.6826 15.1259 21.9174 17.2868 24.0783C19.4477 26.2391 22.3803 27.3196 25.4672 27.3196H26.5477L15.1259 6.17392" fill="#2D231C"/>
<path d="M0.463048 50.4718L6.17391 44.2978C8.33478 41.9826 11.2674 40.5935 14.3544 40.5935C17.4413 40.5935 20.2196 39.2044 22.3804 37.0435L23.1522 36.2718L0 29.6348" fill="#2D231C"/>
<path d="M21.4543 70.8457L20.9912 62.3566C20.8369 59.2696 21.9173 56.1827 24.0782 53.8674C26.0847 51.7066 27.3195 48.6196 27.1651 45.687V44.6066L6.17383 56.4913" fill="#2D231C"/>
<path d="M50.7803 70.2283L44.4521 64.6718C42.1369 62.6653 40.7477 59.7326 40.5934 56.4913C40.439 53.4044 39.0499 50.6261 36.889 48.4653L36.1173 47.6935L29.9434 71" fill="#2D231C"/>
<path d="M70.8451 48.7739L62.356 49.3913C59.269 49.7 56.1821 48.6195 53.8669 46.4587C51.5516 44.4522 48.619 43.3717 45.5321 43.5261H44.4517L56.7995 64.2087" fill="#2D231C"/>
<path d="M69.4564 19.6022L64.0543 26.0848C62.0478 28.4 59.1151 29.9435 56.0282 30.0979C52.9412 30.2522 50.163 31.6413 48.1564 33.9566L47.5391 34.7283L70.9999 40.2848" fill="#2D231C"/>
<path d="M47.6929 0L48.4646 8.48913C48.7733 11.5761 47.8473 14.6631 45.6864 17.1326C43.6799 19.4478 42.7538 22.3804 42.9081 25.4674L43.0625 26.5478L63.4364 13.737" fill="#2D231C"/>
</svg>
