<svg width="37" height="37" viewBox="0 0 37 37" fill="none" xmlns="http://www.w3.org/2000/svg">
<path d="M11.1807 0.321716L14.3981 3.37823C15.6046 4.50431 16.2481 6.03258 16.2481 7.72171C16.2481 9.33041 16.8916 10.8587 18.0176 11.9848L18.4198 12.3869L22.1198 0.402144" fill="#6A5242"/>
<path d="M0.241211 11.0196L4.66514 10.8587C6.27385 10.7783 7.88254 11.4218 9.00864 12.5478C10.1347 13.6739 11.663 14.237 13.2717 14.237H13.8347L7.88255 3.21741" fill="#6A5242"/>
<path d="M0.241308 26.3021L3.2174 23.0847C4.3435 21.8782 5.87177 21.1543 7.48047 21.1543C9.08917 21.1543 10.537 20.4304 11.6631 19.3043L12.0653 18.9021L0 15.4434" fill="#6A5242"/>
<path d="M11.1808 36.9196L10.9396 32.4957C10.8591 30.887 11.4222 29.2783 12.5483 28.0718C13.5939 26.9457 14.2374 25.337 14.157 23.8087V23.2457L3.21777 29.4392" fill="#6A5242"/>
<path d="M26.4632 36.5978L23.1654 33.7022C21.9589 32.6565 21.235 31.1282 21.1545 29.4391C21.0741 27.8304 20.3502 26.3826 19.2241 25.2565L18.8219 24.8543L15.6045 37" fill="#6A5242"/>
<path d="M36.9194 25.4174L32.4955 25.7391C30.8868 25.9 29.2781 25.337 28.0716 24.2109C26.865 23.1652 25.3368 22.6022 23.7281 22.6826H23.165L29.5998 33.4609" fill="#6A5242"/>
<path d="M36.1952 10.2152L33.38 13.5934C32.3343 14.8 30.8061 15.6043 29.1974 15.6847C27.5887 15.7652 26.1408 16.4891 25.0952 17.6956L24.7734 18.0978L36.9996 20.9934" fill="#6A5242"/>
<path d="M24.8546 0L25.2568 4.42391C25.4177 6.03261 24.9351 7.64131 23.809 8.92826C22.7633 10.1348 22.2807 11.663 22.3612 13.2717L22.4416 13.8348L33.059 7.1587" fill="#6A5242"/>
</svg>
